<svg xmlns="http://www.w3.org/2000/svg" xmlns:xlink="http://www.w3.org/1999/xlink" width="2000" zoomAndPan="magnify" viewBox="0 0 1500 1499.999933" height="2000" preserveAspectRatio="xMidYMid meet" version="1.0"><defs><g/><clipPath id="0744ff79a1"><path d="M 227 680 L 414 680 L 414 951 L 227 951 Z M 227 680 " clip-rule="nonzero"/></clipPath><clipPath id="9157cadbf9"><path d="M 108.679688 564.960938 L 498.152344 422.371094 L 640.738281 811.84375 L 251.269531 954.429688 Z M 108.679688 564.960938 " clip-rule="nonzero"/></clipPath><clipPath id="567562dfd3"><path d="M 108.679688 564.960938 L 498.152344 422.371094 L 640.738281 811.84375 L 251.269531 954.429688 Z M 108.679688 564.960938 " clip-rule="nonzero"/></clipPath><clipPath id="31a19d02d4"><path d="M 283 473 L 548 473 L 548 726 L 283 726 Z M 283 473 " clip-rule="nonzero"/></clipPath><clipPath id="3a25f64e0f"><path d="M 108.679688 564.960938 L 498.152344 422.371094 L 640.738281 811.84375 L 251.269531 954.429688 Z M 108.679688 564.960938 " clip-rule="nonzero"/></clipPath><clipPath id="fe830ad65a"><path d="M 108.679688 564.960938 L 498.152344 422.371094 L 640.738281 811.84375 L 251.269531 954.429688 Z M 108.679688 564.960938 " clip-rule="nonzero"/></clipPath><clipPath id="840ce49c27"><rect x="0" width="652" y="0" height="260"/></clipPath><clipPath id="1ff85f982a"><rect x="0" width="808" y="0" height="76"/></clipPath></defs><rect x="-150" width="1800" fill="#ffffff" y="-149.999993" height="1799.99992" fill-opacity="1"/><rect x="-150" width="1800" fill="#f1f1f1" y="-149.999993" height="1799.99992" fill-opacity="1"/><g clip-path="url(#0744ff79a1)"><g clip-path="url(#9157cadbf9)"><g clip-path="url(#567562dfd3)"><path fill="#1f1f1f" d="M 324.476562 680.445312 L 413.085938 721.5625 L 382.355469 787.792969 L 338.75 810.945312 L 349.226562 859.191406 L 305.621094 882.339844 L 316.097656 930.585938 L 252.917969 950.707031 L 227.488281 889.472656 Z M 324.476562 680.445312 " fill-opacity="1" fill-rule="nonzero"/></g></g></g><g clip-path="url(#31a19d02d4)"><g clip-path="url(#3a25f64e0f)"><g clip-path="url(#fe830ad65a)"><path fill="#1f1f1f" d="M 532.222656 546.421875 L 381.292969 476.390625 C 367.742188 470.101562 351.660156 475.988281 345.375 489.542969 L 286.148438 617.175781 C 279.863281 630.722656 285.75 646.808594 299.300781 653.09375 L 450.230469 723.128906 C 463.777344 729.414062 479.863281 723.527344 486.148438 709.976562 L 545.371094 582.347656 C 551.660156 568.796875 545.773438 552.714844 532.222656 546.421875 Z M 501.628906 580.710938 L 490.171875 605.402344 C 488.484375 609.039062 483.4375 610.28125 478.902344 608.179688 L 368.566406 556.980469 C 364.027344 554.875 361.71875 550.21875 363.40625 546.582031 L 374.863281 521.890625 C 376.550781 518.253906 381.597656 517.011719 386.132812 519.113281 L 496.476562 570.316406 C 501.011719 572.417969 503.320312 577.074219 501.628906 580.710938 Z M 501.628906 580.710938 " fill-opacity="1" fill-rule="nonzero"/></g></g></g><g transform="matrix(1, 0, 0, 1, 511, 608)"><g clip-path="url(#840ce49c27)"><g fill="#1f1f1f" fill-opacity="1"><g transform="translate(0.66329, 205.068582)"><g><path d="M 1.515625 0 L 65.65625 -152.28125 L 106.0625 -152.28125 L 170.421875 0 L 125.5 0 L 114.703125 -27.21875 L 56.15625 -27.21875 L 45.359375 0 Z M 68.46875 -59.828125 L 102.390625 -59.828125 L 85.53125 -102.59375 Z M 68.46875 -59.828125 "/></g></g></g><g fill="#1f1f1f" fill-opacity="1"><g transform="translate(172.383338, 205.068582)"><g><path d="M 62.640625 1.078125 L 1.515625 -151.203125 L 48.171875 -151.203125 L 82.515625 -55.515625 L 117.078125 -151.203125 L 162.859375 -151.203125 L 101.515625 1.078125 Z M 62.640625 1.078125 "/></g></g></g><g fill="#1f1f1f" fill-opacity="1"><g transform="translate(336.543372, 205.068582)"><g><path d="M 1.515625 0 L 65.65625 -152.28125 L 106.0625 -152.28125 L 170.421875 0 L 125.5 0 L 114.703125 -27.21875 L 56.15625 -27.21875 L 45.359375 0 Z M 68.46875 -59.828125 L 102.390625 -59.828125 L 85.53125 -102.59375 Z M 68.46875 -59.828125 "/></g></g></g><g fill="#1f1f1f" fill-opacity="1"><g transform="translate(508.26342, 205.068582)"><g><path d="M 72.796875 2.59375 C 59.398438 2.59375 46.582031 0.46875 34.34375 -3.78125 C 22.101562 -8.03125 11.300781 -14.257812 1.9375 -22.46875 L 25.265625 -50.328125 C 32.753906 -44.421875 40.640625 -39.921875 48.921875 -36.828125 C 57.203125 -33.734375 65.660156 -32.1875 74.296875 -32.1875 C 80.054688 -32.1875 84.410156 -33.117188 87.359375 -34.984375 C 90.316406 -36.859375 91.796875 -39.378906 91.796875 -42.546875 L 91.796875 -42.984375 C 91.796875 -46.148438 90.101562 -48.773438 86.71875 -50.859375 C 83.332031 -52.953125 76.457031 -55.222656 66.09375 -57.671875 C 58.03125 -59.546875 50.503906 -61.597656 43.515625 -63.828125 C 36.535156 -66.054688 30.523438 -68.9375 25.484375 -72.46875 C 20.441406 -76 16.445312 -80.390625 13.5 -85.640625 C 10.550781 -90.898438 9.078125 -97.34375 9.078125 -104.96875 L 9.078125 -105.40625 C 9.078125 -112.457031 10.441406 -118.9375 13.171875 -124.84375 C 15.910156 -130.75 19.765625 -135.828125 24.734375 -140.078125 C 29.703125 -144.328125 35.820312 -147.675781 43.09375 -150.125 C 50.363281 -152.570312 58.535156 -153.796875 67.609375 -153.796875 C 80.421875 -153.796875 91.9375 -152.101562 102.15625 -148.71875 C 112.382812 -145.332031 121.601562 -140.328125 129.8125 -133.703125 L 108.859375 -104.109375 C 101.953125 -109.003906 94.828125 -112.710938 87.484375 -115.234375 C 80.140625 -117.753906 73.15625 -119.015625 66.53125 -119.015625 C 61.488281 -119.015625 57.707031 -118.078125 55.1875 -116.203125 C 52.664062 -114.335938 51.40625 -112.035156 51.40625 -109.296875 L 51.40625 -108.859375 C 51.40625 -105.410156 53.164062 -102.675781 56.6875 -100.65625 C 60.21875 -98.632812 67.242188 -96.472656 77.765625 -94.171875 C 94.898438 -90.429688 108.539062 -85.175781 118.6875 -78.40625 C 128.84375 -71.632812 133.921875 -61.195312 133.921875 -47.09375 L 133.921875 -46.65625 C 133.921875 -39.019531 132.441406 -32.140625 129.484375 -26.015625 C 126.535156 -19.898438 122.394531 -14.71875 117.0625 -10.46875 C 111.738281 -6.226562 105.296875 -2.988281 97.734375 -0.75 C 90.179688 1.476562 81.867188 2.59375 72.796875 2.59375 Z M 72.796875 2.59375 "/></g></g></g></g></g><g transform="matrix(1, 0, 0, 1, 511, 845)"><g clip-path="url(#1ff85f982a)"><g fill="#1f1f1f" fill-opacity="1"><g transform="translate(0.66329, 57.73125)"><g><path d="M 27.125 0.765625 C 23.71875 0.765625 20.632812 0.140625 17.875 -1.109375 C 15.125 -2.367188 12.769531 -4.054688 10.8125 -6.171875 C 8.851562 -8.285156 7.335938 -10.726562 6.265625 -13.5 C 5.203125 -16.269531 4.671875 -19.191406 4.671875 -22.265625 L 4.671875 -22.390625 C 4.671875 -25.460938 5.210938 -28.394531 6.296875 -31.1875 C 7.390625 -33.988281 8.914062 -36.453125 10.875 -38.578125 C 12.84375 -40.710938 15.210938 -42.410156 17.984375 -43.671875 C 20.753906 -44.929688 23.84375 -45.5625 27.25 -45.5625 C 30.625 -45.5625 33.695312 -44.929688 36.46875 -43.671875 C 39.238281 -42.410156 41.601562 -40.722656 43.5625 -38.609375 C 45.53125 -36.503906 47.046875 -34.0625 48.109375 -31.28125 C 49.179688 -28.507812 49.71875 -25.585938 49.71875 -22.515625 L 49.71875 -22.390625 C 49.71875 -19.316406 49.171875 -16.382812 48.078125 -13.59375 C 46.992188 -10.800781 45.46875 -8.335938 43.5 -6.203125 C 41.539062 -4.066406 39.164062 -2.367188 36.375 -1.109375 C 33.582031 0.140625 30.5 0.765625 27.125 0.765625 Z M 27.25 -2.234375 C 30.03125 -2.234375 32.582031 -2.753906 34.90625 -3.796875 C 37.226562 -4.847656 39.234375 -6.28125 40.921875 -8.09375 C 42.609375 -9.90625 43.921875 -12.023438 44.859375 -14.453125 C 45.796875 -16.890625 46.265625 -19.492188 46.265625 -22.265625 L 46.265625 -22.390625 C 46.265625 -25.160156 45.78125 -27.769531 44.8125 -30.21875 C 43.851562 -32.675781 42.53125 -34.8125 40.84375 -36.625 C 39.164062 -38.4375 37.148438 -39.875 34.796875 -40.9375 C 32.453125 -42.007812 29.894531 -42.546875 27.125 -42.546875 C 24.351562 -42.546875 21.804688 -42.023438 19.484375 -40.984375 C 17.160156 -39.941406 15.15625 -38.507812 13.46875 -36.6875 C 11.78125 -34.875 10.46875 -32.753906 9.53125 -30.328125 C 8.59375 -27.898438 8.125 -25.296875 8.125 -22.515625 L 8.125 -22.390625 C 8.125 -19.617188 8.601562 -17.003906 9.5625 -14.546875 C 10.519531 -12.097656 11.84375 -9.96875 13.53125 -8.15625 C 15.21875 -6.34375 17.234375 -4.898438 19.578125 -3.828125 C 21.921875 -2.765625 24.476562 -2.234375 27.25 -2.234375 Z M 27.25 -2.234375 "/></g></g></g><g fill="#1f1f1f" fill-opacity="1"><g transform="translate(78.410278, 57.73125)"><g><path d="M 18.75 -41.71875 L 3.140625 -41.71875 L 3.140625 -44.796875 L 37.6875 -44.796875 L 37.6875 -41.71875 L 22.078125 -41.71875 L 22.078125 0 L 18.75 0 Z M 18.75 -41.71875 "/></g></g></g><g fill="#1f1f1f" fill-opacity="1"><g transform="translate(142.592492, 57.73125)"><g><path d="M 27.125 0.765625 C 23.71875 0.765625 20.632812 0.140625 17.875 -1.109375 C 15.125 -2.367188 12.769531 -4.054688 10.8125 -6.171875 C 8.851562 -8.285156 7.335938 -10.726562 6.265625 -13.5 C 5.203125 -16.269531 4.671875 -19.191406 4.671875 -22.265625 L 4.671875 -22.390625 C 4.671875 -25.460938 5.210938 -28.394531 6.296875 -31.1875 C 7.390625 -33.988281 8.914062 -36.453125 10.875 -38.578125 C 12.84375 -40.710938 15.210938 -42.410156 17.984375 -43.671875 C 20.753906 -44.929688 23.84375 -45.5625 27.25 -45.5625 C 30.625 -45.5625 33.695312 -44.929688 36.46875 -43.671875 C 39.238281 -42.410156 41.601562 -40.722656 43.5625 -38.609375 C 45.53125 -36.503906 47.046875 -34.0625 48.109375 -31.28125 C 49.179688 -28.507812 49.71875 -25.585938 49.71875 -22.515625 L 49.71875 -22.390625 C 49.71875 -19.316406 49.171875 -16.382812 48.078125 -13.59375 C 46.992188 -10.800781 45.46875 -8.335938 43.5 -6.203125 C 41.539062 -4.066406 39.164062 -2.367188 36.375 -1.109375 C 33.582031 0.140625 30.5 0.765625 27.125 0.765625 Z M 27.25 -2.234375 C 30.03125 -2.234375 32.582031 -2.753906 34.90625 -3.796875 C 37.226562 -4.847656 39.234375 -6.28125 40.921875 -8.09375 C 42.609375 -9.90625 43.921875 -12.023438 44.859375 -14.453125 C 45.796875 -16.890625 46.265625 -19.492188 46.265625 -22.265625 L 46.265625 -22.390625 C 46.265625 -25.160156 45.78125 -27.769531 44.8125 -30.21875 C 43.851562 -32.675781 42.53125 -34.8125 40.84375 -36.625 C 39.164062 -38.4375 37.148438 -39.875 34.796875 -40.9375 C 32.453125 -42.007812 29.894531 -42.546875 27.125 -42.546875 C 24.351562 -42.546875 21.804688 -42.023438 19.484375 -40.984375 C 17.160156 -39.941406 15.15625 -38.507812 13.46875 -36.6875 C 11.78125 -34.875 10.46875 -32.753906 9.53125 -30.328125 C 8.59375 -27.898438 8.125 -25.296875 8.125 -22.515625 L 8.125 -22.390625 C 8.125 -19.617188 8.601562 -17.003906 9.5625 -14.546875 C 10.519531 -12.097656 11.84375 -9.96875 13.53125 -8.15625 C 15.21875 -6.34375 17.234375 -4.898438 19.578125 -3.828125 C 21.921875 -2.765625 24.476562 -2.234375 27.25 -2.234375 Z M 27.25 -2.234375 "/></g></g></g><g fill="#1f1f1f" fill-opacity="1"><g transform="translate(220.33948, 57.73125)"><g/></g></g><g fill="#1f1f1f" fill-opacity="1"><g transform="translate(262.894927, 57.73125)"><g><path d="M 6.65625 -44.796875 L 9.984375 -44.796875 L 9.984375 -15.359375 L 38.515625 -44.796875 L 43.0625 -44.796875 L 23.484375 -25.015625 L 43.890625 0 L 39.546875 0 L 21.109375 -22.65625 L 9.984375 -11.390625 L 9.984375 0 L 6.65625 0 Z M 6.65625 -44.796875 "/></g></g></g><g fill="#1f1f1f" fill-opacity="1"><g transform="translate(332.003959, 57.73125)"><g><path d="M 7.109375 -44.796875 L 10.421875 -44.796875 L 10.421875 0 L 7.109375 0 Z M 6.390625 -53.8125 L 11.25 -53.8125 L 11.25 -48.953125 L 6.390625 -48.953125 Z M 6.390625 -53.8125 "/></g></g></g><g fill="#1f1f1f" fill-opacity="1"><g transform="translate(372.895801, 57.73125)"><g><path d="M 6.65625 -44.796875 L 25.46875 -44.796875 C 28.238281 -44.796875 30.6875 -44.398438 32.8125 -43.609375 C 34.945312 -42.816406 36.703125 -41.738281 38.078125 -40.375 C 39.140625 -39.3125 39.96875 -38.0625 40.5625 -36.625 C 41.164062 -35.195312 41.46875 -33.675781 41.46875 -32.0625 L 41.46875 -31.921875 C 41.46875 -30.046875 41.132812 -28.375 40.46875 -26.90625 C 39.8125 -25.4375 38.894531 -24.164062 37.71875 -23.09375 C 36.539062 -22.03125 35.148438 -21.164062 33.546875 -20.5 C 31.953125 -19.84375 30.21875 -19.382812 28.34375 -19.125 L 43.125 0 L 38.90625 0 L 24.640625 -18.5625 L 9.984375 -18.5625 L 9.984375 0 L 6.65625 0 Z M 25.078125 -21.5625 C 26.953125 -21.5625 28.691406 -21.796875 30.296875 -22.265625 C 31.898438 -22.734375 33.273438 -23.40625 34.421875 -24.28125 C 35.578125 -25.15625 36.484375 -26.222656 37.140625 -27.484375 C 37.804688 -28.742188 38.140625 -30.179688 38.140625 -31.796875 L 38.140625 -31.921875 C 38.140625 -34.953125 37.019531 -37.34375 34.78125 -39.09375 C 32.539062 -40.84375 29.375 -41.71875 25.28125 -41.71875 L 9.984375 -41.71875 L 9.984375 -21.5625 Z M 25.078125 -21.5625 "/></g></g></g><g fill="#1f1f1f" fill-opacity="1"><g transform="translate(442.51675, 57.73125)"><g><path d="M 23.671875 -45.109375 L 26.875 -45.109375 L 47.734375 0 L 44.078125 0 L 38.390625 -12.546875 L 11.96875 -12.546875 L 6.265625 0 L 2.8125 0 Z M 36.984375 -15.546875 L 25.203125 -41.46875 L 13.375 -15.546875 Z M 36.984375 -15.546875 "/></g></g></g><g fill="#1f1f1f" fill-opacity="1"><g transform="translate(516.424657, 57.73125)"><g><path d="M 6.65625 -44.796875 L 9.984375 -44.796875 L 9.984375 -3.078125 L 36.28125 -3.078125 L 36.28125 0 L 6.65625 0 Z M 6.65625 -44.796875 "/></g></g></g><g fill="#1f1f1f" fill-opacity="1"><g transform="translate(579.071257, 57.73125)"><g><path d="M 23.671875 -45.109375 L 26.875 -45.109375 L 47.734375 0 L 44.078125 0 L 38.390625 -12.546875 L 11.96875 -12.546875 L 6.265625 0 L 2.8125 0 Z M 36.984375 -15.546875 L 25.203125 -41.46875 L 13.375 -15.546875 Z M 36.984375 -15.546875 "/></g></g></g><g fill="#1f1f1f" fill-opacity="1"><g transform="translate(652.979164, 57.73125)"><g><path d="M 6.65625 -44.796875 L 9.796875 -44.796875 L 27.765625 -18.296875 L 45.75 -44.796875 L 48.890625 -44.796875 L 48.890625 0 L 45.5625 0 L 45.5625 -38.90625 L 27.828125 -13.109375 L 27.578125 -13.109375 L 9.859375 -38.90625 L 9.859375 0 L 6.65625 0 Z M 6.65625 -44.796875 "/></g></g></g><g fill="#1f1f1f" fill-opacity="1"><g transform="translate(731.877885, 57.73125)"><g><path d="M 23.671875 -45.109375 L 26.875 -45.109375 L 47.734375 0 L 44.078125 0 L 38.390625 -12.546875 L 11.96875 -12.546875 L 6.265625 0 L 2.8125 0 Z M 36.984375 -15.546875 L 25.203125 -41.46875 L 13.375 -15.546875 Z M 36.984375 -15.546875 "/></g></g></g></g></g></svg>