<svg xmlns="http://www.w3.org/2000/svg" xmlns:xlink="http://www.w3.org/1999/xlink" width="2000" zoomAndPan="magnify" viewBox="0 0 1500 1499.999933" height="2000" preserveAspectRatio="xMidYMid meet" version="1.0"><defs><g/><clipPath id="25c053a383"><path d="M 0.160156 137 L 58 137 L 58 216 L 0.160156 216 Z M 0.160156 137 " clip-rule="nonzero"/></clipPath><clipPath id="e089385062"><rect x="0" width="722" y="0" height="240"/></clipPath><clipPath id="2b708680ae"><path d="M 239 606.398438 L 500 606.398438 L 500 863.648438 L 239 863.648438 Z M 239 606.398438 " clip-rule="nonzero"/></clipPath><clipPath id="b652e80bb6"><rect x="0" width="464" y="0" height="85"/></clipPath></defs><rect x="-150" width="1800" fill="#ffffff" y="-149.999993" height="1799.99992" fill-opacity="1"/><rect x="-150" width="1800" fill="#ffffff" y="-149.999993" height="1799.99992" fill-opacity="1"/><g transform="matrix(1, 0, 0, 1, 524, 643)"><g clip-path="url(#e089385062)"><g fill="#002169" fill-opacity="1"><g transform="translate(0.341277, 79.133998)"><g><path d="M 38.515625 -23.28125 L 35.515625 0 L 17.078125 0 L 20.078125 -23.28125 L 5.53125 -75.6875 L 25.71875 -75.6875 L 32.3125 -46 L 46.671875 -75.6875 L 66.859375 -75.6875 Z M 38.515625 -23.28125 "/></g></g></g><g fill="#002169" fill-opacity="1"><g transform="translate(91.53599, 79.133998)"><g><path d="M 37.359375 -77.046875 C 47.578125 -77.046875 54.882812 -74.117188 59.28125 -68.265625 C 63.6875 -62.410156 65.015625 -52.914062 63.265625 -39.78125 L 62.78125 -36.09375 C 61.613281 -27.363281 59.6875 -20.25 57 -14.75 C 54.320312 -9.25 50.703125 -5.1875 46.140625 -2.5625 C 41.578125 0.0507812 35.898438 1.359375 29.109375 1.359375 C 18.953125 1.359375 11.640625 -1.582031 7.171875 -7.46875 C 2.710938 -13.351562 1.359375 -22.832031 3.109375 -35.90625 L 3.59375 -39.59375 C 4.757812 -48.320312 6.695312 -55.453125 9.40625 -60.984375 C 12.125 -66.515625 15.765625 -70.570312 20.328125 -73.15625 C 24.890625 -75.75 30.566406 -77.046875 37.359375 -77.046875 Z M 29.59375 -14.5625 L 30.65625 -14.5625 C 33.570312 -14.5625 35.898438 -15.429688 37.640625 -17.171875 C 39.390625 -18.921875 40.75 -21.410156 41.71875 -24.640625 C 42.6875 -27.878906 43.460938 -31.695312 44.046875 -36.09375 L 44.53125 -39.78125 C 45.113281 -44.175781 45.335938 -47.972656 45.203125 -51.171875 C 45.078125 -54.378906 44.367188 -56.835938 43.078125 -58.546875 C 41.785156 -60.265625 39.6875 -61.125 36.78125 -61.125 L 35.703125 -61.125 C 32.796875 -61.125 30.46875 -60.25 28.71875 -58.5 C 26.96875 -56.757812 25.609375 -54.269531 24.640625 -51.03125 C 23.671875 -47.800781 22.894531 -43.988281 22.3125 -39.59375 L 21.828125 -35.90625 C 21.242188 -31.5 21.015625 -27.695312 21.140625 -24.5 C 21.273438 -21.300781 21.988281 -18.84375 23.28125 -17.125 C 24.582031 -15.414062 26.6875 -14.5625 29.59375 -14.5625 Z M 29.59375 -14.5625 "/></g></g></g><g fill="#002169" fill-opacity="1"><g transform="translate(186.610819, 79.133998)"><g><path d="M 45.21875 0 L 0.09375 0 L 10 -75.6875 L 28.4375 -75.6875 L 20.578125 -15.90625 L 47.25 -15.90625 Z M 45.21875 0 "/></g></g></g><g fill="#002169" fill-opacity="1"><g transform="translate(267.135223, 79.133998)"><g><path d="M 22.3125 -39.59375 L 21.828125 -35.90625 C 21.242188 -31.5 21.015625 -27.695312 21.140625 -24.5 C 21.273438 -21.300781 21.988281 -18.84375 23.28125 -17.125 C 24.582031 -15.414062 26.6875 -14.5625 29.59375 -14.5625 L 30.65625 -14.5625 C 33.894531 -14.5625 36.289062 -15.660156 37.84375 -17.859375 C 39.394531 -20.054688 40.394531 -22.835938 40.84375 -26.203125 L 59.28125 -26.203125 L 59.1875 -25.328125 C 58.476562 -18.796875 56.828125 -13.570312 54.234375 -9.65625 C 51.648438 -5.738281 48.238281 -2.921875 44 -1.203125 C 39.757812 0.503906 34.796875 1.359375 29.109375 1.359375 C 18.953125 1.359375 11.640625 -1.582031 7.171875 -7.46875 C 2.710938 -13.351562 1.359375 -22.832031 3.109375 -35.90625 L 3.59375 -39.59375 C 4.757812 -48.320312 6.695312 -55.453125 9.40625 -60.984375 C 12.125 -66.515625 15.765625 -70.570312 20.328125 -73.15625 C 24.890625 -75.75 30.566406 -77.046875 37.359375 -77.046875 C 46.609375 -77.046875 53.398438 -74.878906 57.734375 -70.546875 C 62.066406 -66.210938 63.648438 -59.484375 62.484375 -50.359375 L 62 -46.578125 L 43.5625 -46.578125 C 43.957031 -49.484375 44.070312 -52.035156 43.90625 -54.234375 C 43.75 -56.441406 43.132812 -58.140625 42.0625 -59.328125 C 41 -60.523438 39.238281 -61.125 36.78125 -61.125 L 35.703125 -61.125 C 32.660156 -61.125 30.265625 -60.234375 28.515625 -58.453125 C 26.773438 -56.679688 25.453125 -54.191406 24.546875 -50.984375 C 23.640625 -47.785156 22.894531 -43.988281 22.3125 -39.59375 Z M 22.3125 -39.59375 "/></g></g></g><g fill="#002169" fill-opacity="1"><g transform="translate(360.270015, 79.133998)"><g><path d="M 28.140625 1.359375 C 20.828125 1.359375 15.210938 0.34375 11.296875 -1.6875 C 7.390625 -3.726562 4.820312 -6.640625 3.59375 -10.421875 C 2.363281 -14.210938 2.070312 -18.757812 2.71875 -24.0625 L 9.515625 -75.6875 L 27.9375 -75.6875 L 21.25 -24.546875 C 20.988281 -22.546875 20.972656 -20.800781 21.203125 -19.3125 C 21.429688 -17.820312 22.160156 -16.65625 23.390625 -15.8125 C 24.617188 -14.976562 26.554688 -14.5625 29.203125 -14.5625 C 33.210938 -14.5625 36.023438 -15.476562 37.640625 -17.3125 C 39.265625 -19.15625 40.269531 -21.566406 40.65625 -24.546875 L 47.34375 -75.6875 L 65.78125 -75.6875 L 59 -24.0625 C 58.351562 -18.757812 56.992188 -14.210938 54.921875 -10.421875 C 52.847656 -6.640625 49.691406 -3.726562 45.453125 -1.6875 C 41.222656 0.34375 35.453125 1.359375 28.140625 1.359375 Z M 28.140625 1.359375 "/></g></g></g><g fill="#002169" fill-opacity="1"><g transform="translate(454.374805, 79.133998)"><g><path d="M 45.21875 0 L 0.09375 0 L 10 -75.6875 L 28.4375 -75.6875 L 20.578125 -15.90625 L 47.25 -15.90625 Z M 45.21875 0 "/></g></g></g><g fill="#002169" fill-opacity="1"><g transform="translate(534.899209, 79.133998)"><g><path d="M 28.140625 1.359375 C 20.828125 1.359375 15.210938 0.34375 11.296875 -1.6875 C 7.390625 -3.726562 4.820312 -6.640625 3.59375 -10.421875 C 2.363281 -14.210938 2.070312 -18.757812 2.71875 -24.0625 L 9.515625 -75.6875 L 27.9375 -75.6875 L 21.25 -24.546875 C 20.988281 -22.546875 20.972656 -20.800781 21.203125 -19.3125 C 21.429688 -17.820312 22.160156 -16.65625 23.390625 -15.8125 C 24.617188 -14.976562 26.554688 -14.5625 29.203125 -14.5625 C 33.210938 -14.5625 36.023438 -15.476562 37.640625 -17.3125 C 39.265625 -19.15625 40.269531 -21.566406 40.65625 -24.546875 L 47.34375 -75.6875 L 65.78125 -75.6875 L 59 -24.0625 C 58.351562 -18.757812 56.992188 -14.210938 54.921875 -10.421875 C 52.847656 -6.640625 49.691406 -3.726562 45.453125 -1.6875 C 41.222656 0.34375 35.453125 1.359375 28.140625 1.359375 Z M 28.140625 1.359375 "/></g></g></g><g fill="#002169" fill-opacity="1"><g transform="translate(629.003998, 79.133998)"><g><path d="M 28.4375 -75.6875 L 25.03125 -49.6875 L 43.953125 -75.6875 L 66.265625 -75.6875 L 41.625 -45.890625 L 56.375 0 L 36 0 L 27.453125 -28.8125 L 21.25 -21.34375 L 18.53125 0 L 0.09375 0 L 10 -75.6875 Z M 28.4375 -75.6875 "/></g></g></g><g clip-path="url(#25c053a383)"><g fill="#002169" fill-opacity="1"><g transform="translate(0.341277, 214.400702)"><g><path d="M 19.796875 -24.265625 C 19.472656 -21.671875 19.601562 -19.660156 20.1875 -18.234375 C 20.769531 -16.816406 21.625 -15.816406 22.75 -15.234375 C 23.882812 -14.648438 25.066406 -14.359375 26.296875 -14.359375 L 27.265625 -14.359375 C 29.140625 -14.359375 30.785156 -14.988281 32.203125 -16.25 C 33.628906 -17.507812 34.472656 -19.597656 34.734375 -22.515625 L 34.828125 -23.578125 C 35.222656 -28.367188 33.15625 -30.765625 28.625 -30.765625 L 18.625 -30.765625 L 20.765625 -46.484375 L 30.46875 -46.484375 C 32.800781 -46.484375 34.660156 -47.0625 36.046875 -48.21875 C 37.441406 -49.382812 38.234375 -51.164062 38.421875 -53.5625 L 38.515625 -54.625 C 38.710938 -56.632812 38.257812 -58.253906 37.15625 -59.484375 C 36.0625 -60.710938 34.671875 -61.328125 32.984375 -61.328125 L 32.015625 -61.328125 C 29.953125 -61.328125 28.191406 -60.550781 26.734375 -59 C 25.273438 -57.445312 24.285156 -54.597656 23.765625 -50.453125 L 5.71875 -50.453125 L 5.921875 -52.015625 C 6.953125 -60.285156 9.710938 -66.523438 14.203125 -70.734375 C 18.703125 -74.941406 25.0625 -77.046875 33.28125 -77.046875 C 38.257812 -77.046875 42.347656 -76.332031 45.546875 -74.90625 C 48.753906 -73.488281 51.226562 -71.660156 52.96875 -69.421875 C 54.71875 -67.191406 55.882812 -64.847656 56.46875 -62.390625 C 57.050781 -59.929688 57.179688 -57.664062 56.859375 -55.59375 L 56.5625 -53.46875 C 56.050781 -49.519531 54.875 -46.363281 53.03125 -44 C 51.1875 -41.644531 49.003906 -39.882812 46.484375 -38.71875 C 48.804688 -37.613281 50.550781 -35.492188 51.71875 -32.359375 C 52.882812 -29.222656 53.269531 -25.648438 52.875 -21.640625 L 52.6875 -19.703125 C 52.488281 -17.492188 51.851562 -15.160156 50.78125 -12.703125 C 49.71875 -10.253906 48.132812 -7.960938 46.03125 -5.828125 C 43.9375 -3.691406 41.222656 -1.957031 37.890625 -0.625 C 34.554688 0.695312 30.5 1.359375 25.71875 1.359375 C 17.050781 1.359375 10.597656 -0.835938 6.359375 -5.234375 C 2.117188 -9.640625 0.550781 -15.753906 1.65625 -23.578125 L 1.75 -24.265625 Z M 19.796875 -24.265625 "/></g></g></g></g><g fill="#002169" fill-opacity="1"><g transform="translate(87.655873, 214.400702)"><g><path d="M 56.28125 -77.046875 L 54.140625 -61.125 C 48.378906 -61.0625 43.640625 -60.492188 39.921875 -59.421875 C 36.203125 -58.359375 32.820312 -56.375 29.78125 -53.46875 C 28.6875 -52.363281 27.671875 -51.082031 26.734375 -49.625 C 25.796875 -48.175781 25.035156 -46.414062 24.453125 -44.34375 C 25.941406 -45.570312 27.609375 -46.441406 29.453125 -46.953125 C 31.296875 -47.472656 33.1875 -47.734375 35.125 -47.734375 C 41.59375 -47.734375 46.410156 -45.726562 49.578125 -41.71875 C 52.753906 -37.707031 53.984375 -32.015625 53.265625 -24.640625 L 53.078125 -22.703125 C 52.367188 -15.328125 49.734375 -9.472656 45.171875 -5.140625 C 40.609375 -0.804688 34.1875 1.359375 25.90625 1.359375 C 19.957031 1.359375 15.125 0.160156 11.40625 -2.234375 C 7.6875 -4.628906 5.066406 -7.957031 3.546875 -12.21875 C 2.023438 -16.488281 1.554688 -21.375 2.140625 -26.875 L 2.328125 -28.71875 C 2.847656 -33.632812 3.640625 -38.082031 4.703125 -42.0625 C 5.773438 -46.039062 7.296875 -49.789062 9.265625 -53.3125 C 11.234375 -56.84375 13.835938 -60.351562 17.078125 -63.84375 C 20.566406 -67.59375 24.300781 -70.40625 28.28125 -72.28125 C 32.257812 -74.164062 36.578125 -75.429688 41.234375 -76.078125 C 45.890625 -76.722656 50.90625 -77.046875 56.28125 -77.046875 Z M 28.53125 -32.125 C 27.238281 -32.125 25.832031 -31.78125 24.3125 -31.09375 C 22.789062 -30.414062 21.445312 -29.300781 20.28125 -27.75 L 19.984375 -25.328125 C 19.535156 -21.703125 19.941406 -18.96875 21.203125 -17.125 C 22.460938 -15.28125 24.09375 -14.359375 26.09375 -14.359375 L 26.6875 -14.359375 C 28.75 -14.359375 30.601562 -15.132812 32.25 -16.6875 C 33.90625 -18.238281 34.863281 -20.3125 35.125 -22.90625 L 35.21875 -23.96875 C 35.539062 -26.875 35.070312 -28.957031 33.8125 -30.21875 C 32.550781 -31.488281 30.953125 -32.125 29.015625 -32.125 Z M 28.53125 -32.125 "/></g></g></g><g fill="#002169" fill-opacity="1"><g transform="translate(174.970468, 214.400702)"><g><path d="M 56.671875 -54.34375 L 52.296875 -21.34375 C 51.390625 -14.550781 48.738281 -9.066406 44.34375 -4.890625 C 39.945312 -0.722656 33.507812 1.359375 25.03125 1.359375 C 19.601562 1.359375 15.0625 0.375 11.40625 -1.59375 C 7.75 -3.570312 5.09375 -6.273438 3.4375 -9.703125 C 1.789062 -13.128906 1.257812 -17.007812 1.84375 -21.34375 L 6.203125 -54.34375 C 7.109375 -61.132812 9.757812 -66.613281 14.15625 -70.78125 C 18.5625 -74.957031 25 -77.046875 33.46875 -77.046875 C 38.90625 -77.046875 43.453125 -76.054688 47.109375 -74.078125 C 50.765625 -72.109375 53.414062 -69.425781 55.0625 -66.03125 C 56.71875 -62.632812 57.253906 -58.738281 56.671875 -54.34375 Z M 34.25 -21.34375 L 38.625 -54.34375 C 38.945312 -56.40625 38.554688 -58.082031 37.453125 -59.375 C 36.347656 -60.675781 34.664062 -61.328125 32.40625 -61.328125 L 32.015625 -61.328125 C 29.753906 -61.328125 27.976562 -60.710938 26.6875 -59.484375 C 25.394531 -58.253906 24.585938 -56.539062 24.265625 -54.34375 L 19.890625 -21.34375 C 19.628906 -19.34375 20.03125 -17.675781 21.09375 -16.34375 C 22.164062 -15.019531 23.832031 -14.359375 26.09375 -14.359375 L 26.484375 -14.359375 C 28.753906 -14.359375 30.550781 -14.972656 31.875 -16.203125 C 33.195312 -17.429688 33.988281 -19.144531 34.25 -21.34375 Z M 34.25 -21.34375 "/></g></g></g><g fill="#002169" fill-opacity="1"><g transform="translate(262.28842, 214.400702)"><g/></g></g></g></g><path fill="#38d430" d="M 440.644531 826.113281 L 479.574219 828.914062 L 498.738281 860.300781 L 464.816406 845.410156 L 450.0625 861.835938 L 397.507812 798.332031 L 312.371094 731.023438 L 297.347656 686.886719 L 240.453125 698.90625 L 284.792969 649.957031 L 343.085938 687.351562 L 383.753906 629.59375 L 497.738281 607.890625 L 415.871094 732.027344 Z M 440.644531 826.113281 " fill-opacity="1" fill-rule="evenodd"/><g clip-path="url(#2b708680ae)"><path fill="#002169" d="M 316.042969 732.359375 L 414.203125 733.292969 L 396.773438 796.195312 Z M 398.910156 798.066406 L 415.804688 736.96875 L 447.324219 856.628906 Z M 441.648438 824.910156 L 417.273438 732.292969 L 498.738281 608.625 C 499.472656 607.625 498.539062 606.421875 497.472656 606.621094 L 383.554688 628.324219 L 382.683594 628.859375 L 342.753906 685.683594 L 285.527344 648.957031 C 284.992188 648.625 284.324219 648.691406 283.925781 649.15625 L 239.519531 698.035156 C 238.71875 698.972656 239.519531 700.375 240.722656 700.105469 L 296.542969 688.355469 L 311.167969 731.425781 L 311.636719 732.09375 L 396.574219 799.269531 L 448.992188 862.636719 C 449.527344 863.304688 450.460938 863.304688 450.929688 862.703125 L 465.085938 846.945312 L 498.140625 861.503906 C 499.273438 861.96875 500.410156 860.769531 499.675781 859.632812 L 480.710938 828.316406 C 480.511719 827.980469 480.109375 827.714844 479.707031 827.648438 Z M 442.316406 827.445312 L 476.902344 829.984375 L 450.660156 859.164062 Z M 414.136719 730.757812 L 314.773438 729.753906 L 344.089844 688.085938 L 383.285156 632.398438 Z M 466.953125 844.941406 L 479.441406 831.054688 L 495.535156 857.496094 Z M 416.273438 729.152344 L 385.355469 630.527344 L 495 609.695312 Z M 341.285156 687.753906 L 312.769531 728.285156 L 287.195312 653.03125 Z M 284.324219 652.429688 L 295.742188 685.949219 L 244.058594 696.835938 Z M 284.324219 652.429688 " fill-opacity="1" fill-rule="evenodd"/></g><g transform="matrix(1, 0, 0, 1, 801, 801)"><g clip-path="url(#b652e80bb6)"><g fill="#38d430" fill-opacity="1"><g transform="translate(4.04053, 63.592171)"><g><path d="M 24.125 -61.515625 L 32.078125 -61.515625 L 41.609375 0 L 35.671875 0 L 33.328125 -15.609375 L 11 -15.609375 L 4.609375 0 L -1.5625 0 Z M 27.40625 -55.34375 L 13.109375 -20.6875 L 32.546875 -20.6875 Z M 27.40625 -55.34375 "/></g></g></g><g fill="#38d430" fill-opacity="1"><g transform="translate(51.726958, 63.592171)"><g><path d="M 23.1875 -42.234375 C 23.445312 -42.234375 23.691406 -42.21875 23.921875 -42.1875 C 24.160156 -42.164062 24.28125 -42.15625 24.28125 -42.15625 L 23.65625 -36.765625 L 22.5625 -36.765625 C 20.476562 -36.765625 18.664062 -36.410156 17.125 -35.703125 C 15.59375 -35.003906 14.289062 -34.144531 13.21875 -33.125 C 12.15625 -32.113281 11.3125 -31.140625 10.6875 -30.203125 L 6.71875 0 L 1.25 0 L 5.234375 -30.125 L 6.25 -41.375 L 10.921875 -41.375 L 10.921875 -35.984375 C 12.171875 -37.753906 13.820312 -39.238281 15.875 -40.4375 C 17.9375 -41.632812 20.375 -42.234375 23.1875 -42.234375 Z M 23.1875 -42.234375 "/></g></g></g><g fill="#38d430" fill-opacity="1"><g transform="translate(77.716443, 63.592171)"><g><path d="M 27.09375 0 L 27.09375 -5.78125 C 25.632812 -4.007812 23.679688 -2.457031 21.234375 -1.125 C 18.785156 0.195312 15.816406 0.859375 12.328125 0.859375 C 8.378906 0.859375 5.398438 -0.207031 3.390625 -2.34375 C 1.390625 -4.476562 0.597656 -7.207031 1.015625 -10.53125 L 1.171875 -11.78125 C 1.535156 -14.695312 2.40625 -16.945312 3.78125 -18.53125 C 5.164062 -20.125 6.9375 -21.296875 9.09375 -22.046875 C 11.25 -22.804688 13.628906 -23.394531 16.234375 -23.8125 L 29.046875 -25.84375 L 29.28125 -27.5625 C 29.738281 -30.882812 29.367188 -33.390625 28.171875 -35.078125 C 26.984375 -36.773438 24.515625 -37.625 20.765625 -37.625 C 18.160156 -37.625 16.128906 -37.15625 14.671875 -36.21875 C 13.210938 -35.28125 12.144531 -34.066406 11.46875 -32.578125 C 10.789062 -31.097656 10.320312 -29.476562 10.0625 -27.71875 L 4.84375 -27.71875 L 5 -28.734375 C 5.257812 -30.285156 5.6875 -31.851562 6.28125 -33.4375 C 6.882812 -35.03125 7.78125 -36.488281 8.96875 -37.8125 C 10.164062 -39.144531 11.738281 -40.210938 13.6875 -41.015625 C 15.644531 -41.828125 18.054688 -42.234375 20.921875 -42.234375 C 24.878906 -42.234375 27.921875 -41.59375 30.046875 -40.3125 C 32.179688 -39.039062 33.585938 -37.242188 34.265625 -34.921875 C 34.941406 -32.609375 35.070312 -29.921875 34.65625 -26.859375 L 32.625 -11.703125 L 31.609375 0 Z M 13.578125 -3.90625 C 16.179688 -3.90625 18.378906 -4.296875 20.171875 -5.078125 C 21.972656 -5.859375 23.429688 -6.78125 24.546875 -7.84375 C 25.671875 -8.914062 26.519531 -9.835938 27.09375 -10.609375 L 28.5 -21.546875 L 16.3125 -19.59375 C 13.5 -19.175781 11.285156 -18.351562 9.671875 -17.125 C 8.066406 -15.90625 7.109375 -14.226562 6.796875 -12.09375 L 6.640625 -11 C 6.378906 -9.1875 6.804688 -7.550781 7.921875 -6.09375 C 9.046875 -4.632812 10.929688 -3.90625 13.578125 -3.90625 Z M 13.578125 -3.90625 "/></g></g></g><g fill="#38d430" fill-opacity="1"><g transform="translate(117.676278, 63.592171)"><g><path d="M 8.4375 -21.78125 L 8.203125 -20.0625 C 7.523438 -15.164062 8.015625 -11.273438 9.671875 -8.390625 C 11.335938 -5.503906 14.203125 -4.0625 18.265625 -4.0625 C 20.816406 -4.0625 22.875 -4.53125 24.4375 -5.46875 C 26 -6.40625 27.195312 -7.664062 28.03125 -9.25 C 28.863281 -10.832031 29.40625 -12.535156 29.65625 -14.359375 L 34.96875 -14.359375 L 34.8125 -13.34375 C 34.445312 -11.050781 33.726562 -8.851562 32.65625 -6.75 C 31.59375 -4.644531 30.007812 -2.898438 27.90625 -1.515625 C 25.800781 -0.140625 23.003906 0.625 19.515625 0.78125 L 17.5625 4.53125 L 17.875 4.53125 C 19.539062 4.582031 21.078125 4.984375 22.484375 5.734375 C 23.890625 6.492188 24.59375 7.882812 24.59375 9.90625 C 24.59375 12.195312 23.796875 13.863281 22.203125 14.90625 C 20.617188 15.945312 18.601562 16.46875 16.15625 16.46875 C 14.695312 16.46875 13.316406 16.242188 12.015625 15.796875 C 10.710938 15.359375 9.703125 14.878906 8.984375 14.359375 L 10.53125 11.546875 C 11.101562 11.910156 11.882812 12.273438 12.875 12.640625 C 13.863281 13.003906 14.929688 13.1875 16.078125 13.1875 C 19.304688 13.1875 20.921875 12.171875 20.921875 10.140625 C 20.921875 9.109375 20.503906 8.410156 19.671875 8.046875 C 18.835938 7.679688 17.820312 7.5 16.625 7.5 C 16 7.5 15.4375 7.535156 14.9375 7.609375 C 14.445312 7.691406 14.203125 7.734375 14.203125 7.734375 L 13.1875 6.25 L 16 0.703125 C 12.457031 0.335938 9.617188 -0.78125 7.484375 -2.65625 C 5.359375 -4.53125 3.90625 -6.960938 3.125 -9.953125 C 2.34375 -12.941406 2.1875 -16.257812 2.65625 -19.90625 L 2.890625 -21.625 C 3.460938 -25.632812 4.488281 -29.1875 5.96875 -32.28125 C 7.457031 -35.375 9.5 -37.804688 12.09375 -39.578125 C 14.695312 -41.347656 17.953125 -42.234375 21.859375 -42.234375 C 24.984375 -42.234375 27.554688 -41.773438 29.578125 -40.859375 C 31.609375 -39.953125 33.179688 -38.742188 34.296875 -37.234375 C 35.421875 -35.722656 36.164062 -34.09375 36.53125 -32.34375 C 36.894531 -30.601562 36.945312 -28.90625 36.6875 -27.25 L 36.53125 -26.234375 L 31.296875 -26.234375 C 31.765625 -29.296875 31.269531 -31.90625 29.8125 -34.0625 C 28.363281 -36.226562 25.710938 -37.3125 21.859375 -37.3125 C 18.054688 -37.3125 15.035156 -35.929688 12.796875 -33.171875 C 10.566406 -30.421875 9.113281 -26.625 8.4375 -21.78125 Z M 8.4375 -21.78125 "/></g></g></g><g fill="#38d430" fill-opacity="1"><g transform="translate(158.4166, 63.592171)"><g/></g></g><g fill="#38d430" fill-opacity="1"><g transform="translate(174.025928, 63.592171)"><g><path d="M 15.53125 -60.890625 L 11.15625 -27.875 L 38.40625 -60.890625 L 45.359375 -60.890625 L 23.8125 -35.203125 L 37.390625 0 L 31.140625 0 L 19.671875 -30.203125 L 9.984375 -18.734375 L 7.578125 0 L 1.953125 0 L 9.90625 -60.890625 Z M 15.53125 -60.890625 "/></g></g></g><g fill="#38d430" fill-opacity="1"><g transform="translate(217.888107, 63.592171)"><g><path d="M 1.875 0 L 7.265625 -41.375 L 12.71875 -41.375 L 7.34375 0 Z M 15.765625 -58.15625 L 14.828125 -51.125 L 7.8125 -51.125 L 8.75 -58.15625 Z M 15.765625 -58.15625 "/></g></g></g><g fill="#38d430" fill-opacity="1"><g transform="translate(234.746168, 63.592171)"><g><path d="M 23.1875 -42.234375 C 23.445312 -42.234375 23.691406 -42.21875 23.921875 -42.1875 C 24.160156 -42.164062 24.28125 -42.15625 24.28125 -42.15625 L 23.65625 -36.765625 L 22.5625 -36.765625 C 20.476562 -36.765625 18.664062 -36.410156 17.125 -35.703125 C 15.59375 -35.003906 14.289062 -34.144531 13.21875 -33.125 C 12.15625 -32.113281 11.3125 -31.140625 10.6875 -30.203125 L 6.71875 0 L 1.25 0 L 5.234375 -30.125 L 6.25 -41.375 L 10.921875 -41.375 L 10.921875 -35.984375 C 12.171875 -37.753906 13.820312 -39.238281 15.875 -40.4375 C 17.9375 -41.632812 20.375 -42.234375 23.1875 -42.234375 Z M 23.1875 -42.234375 "/></g></g></g><g fill="#38d430" fill-opacity="1"><g transform="translate(260.735652, 63.592171)"><g><path d="M 27.09375 0 L 27.09375 -5.78125 C 25.632812 -4.007812 23.679688 -2.457031 21.234375 -1.125 C 18.785156 0.195312 15.816406 0.859375 12.328125 0.859375 C 8.378906 0.859375 5.398438 -0.207031 3.390625 -2.34375 C 1.390625 -4.476562 0.597656 -7.207031 1.015625 -10.53125 L 1.171875 -11.78125 C 1.535156 -14.695312 2.40625 -16.945312 3.78125 -18.53125 C 5.164062 -20.125 6.9375 -21.296875 9.09375 -22.046875 C 11.25 -22.804688 13.628906 -23.394531 16.234375 -23.8125 L 29.046875 -25.84375 L 29.28125 -27.5625 C 29.738281 -30.882812 29.367188 -33.390625 28.171875 -35.078125 C 26.984375 -36.773438 24.515625 -37.625 20.765625 -37.625 C 18.160156 -37.625 16.128906 -37.15625 14.671875 -36.21875 C 13.210938 -35.28125 12.144531 -34.066406 11.46875 -32.578125 C 10.789062 -31.097656 10.320312 -29.476562 10.0625 -27.71875 L 4.84375 -27.71875 L 5 -28.734375 C 5.257812 -30.285156 5.6875 -31.851562 6.28125 -33.4375 C 6.882812 -35.03125 7.78125 -36.488281 8.96875 -37.8125 C 10.164062 -39.144531 11.738281 -40.210938 13.6875 -41.015625 C 15.644531 -41.828125 18.054688 -42.234375 20.921875 -42.234375 C 24.878906 -42.234375 27.921875 -41.59375 30.046875 -40.3125 C 32.179688 -39.039062 33.585938 -37.242188 34.265625 -34.921875 C 34.941406 -32.609375 35.070312 -29.921875 34.65625 -26.859375 L 32.625 -11.703125 L 31.609375 0 Z M 13.578125 -3.90625 C 16.179688 -3.90625 18.378906 -4.296875 20.171875 -5.078125 C 21.972656 -5.859375 23.429688 -6.78125 24.546875 -7.84375 C 25.671875 -8.914062 26.519531 -9.835938 27.09375 -10.609375 L 28.5 -21.546875 L 16.3125 -19.59375 C 13.5 -19.175781 11.285156 -18.351562 9.671875 -17.125 C 8.066406 -15.90625 7.109375 -14.226562 6.796875 -12.09375 L 6.640625 -11 C 6.378906 -9.1875 6.804688 -7.550781 7.921875 -6.09375 C 9.046875 -4.632812 10.929688 -3.90625 13.578125 -3.90625 Z M 13.578125 -3.90625 "/></g></g></g><g fill="#38d430" fill-opacity="1"><g transform="translate(300.695488, 63.592171)"><g><path d="M 1.875 0 L 10.0625 -62.453125 L 15.53125 -62.453125 L 7.34375 0 Z M 1.875 0 "/></g></g></g><g fill="#38d430" fill-opacity="1"><g transform="translate(317.553549, 63.592171)"><g><path d="M 27.09375 0 L 27.09375 -5.78125 C 25.632812 -4.007812 23.679688 -2.457031 21.234375 -1.125 C 18.785156 0.195312 15.816406 0.859375 12.328125 0.859375 C 8.378906 0.859375 5.398438 -0.207031 3.390625 -2.34375 C 1.390625 -4.476562 0.597656 -7.207031 1.015625 -10.53125 L 1.171875 -11.78125 C 1.535156 -14.695312 2.40625 -16.945312 3.78125 -18.53125 C 5.164062 -20.125 6.9375 -21.296875 9.09375 -22.046875 C 11.25 -22.804688 13.628906 -23.394531 16.234375 -23.8125 L 29.046875 -25.84375 L 29.28125 -27.5625 C 29.738281 -30.882812 29.367188 -33.390625 28.171875 -35.078125 C 26.984375 -36.773438 24.515625 -37.625 20.765625 -37.625 C 18.160156 -37.625 16.128906 -37.15625 14.671875 -36.21875 C 13.210938 -35.28125 12.144531 -34.066406 11.46875 -32.578125 C 10.789062 -31.097656 10.320312 -29.476562 10.0625 -27.71875 L 4.84375 -27.71875 L 5 -28.734375 C 5.257812 -30.285156 5.6875 -31.851562 6.28125 -33.4375 C 6.882812 -35.03125 7.78125 -36.488281 8.96875 -37.8125 C 10.164062 -39.144531 11.738281 -40.210938 13.6875 -41.015625 C 15.644531 -41.828125 18.054688 -42.234375 20.921875 -42.234375 C 24.878906 -42.234375 27.921875 -41.59375 30.046875 -40.3125 C 32.179688 -39.039062 33.585938 -37.242188 34.265625 -34.921875 C 34.941406 -32.609375 35.070312 -29.921875 34.65625 -26.859375 L 32.625 -11.703125 L 31.609375 0 Z M 13.578125 -3.90625 C 16.179688 -3.90625 18.378906 -4.296875 20.171875 -5.078125 C 21.972656 -5.859375 23.429688 -6.78125 24.546875 -7.84375 C 25.671875 -8.914062 26.519531 -9.835938 27.09375 -10.609375 L 28.5 -21.546875 L 16.3125 -19.59375 C 13.5 -19.175781 11.285156 -18.351562 9.671875 -17.125 C 8.066406 -15.90625 7.109375 -14.226562 6.796875 -12.09375 L 6.640625 -11 C 6.378906 -9.1875 6.804688 -7.550781 7.921875 -6.09375 C 9.046875 -4.632812 10.929688 -3.90625 13.578125 -3.90625 Z M 13.578125 -3.90625 "/></g></g></g><g fill="#38d430" fill-opacity="1"><g transform="translate(357.513384, 63.592171)"><g><path d="M 54.328125 0 L 48.859375 0 L 52.6875 -29.203125 C 53.101562 -32.210938 52.632812 -34.316406 51.28125 -35.515625 C 49.925781 -36.710938 48.003906 -37.3125 45.515625 -37.3125 C 43.847656 -37.3125 42.296875 -36.972656 40.859375 -36.296875 C 39.429688 -35.617188 38.179688 -34.796875 37.109375 -33.828125 C 36.046875 -32.867188 35.203125 -31.945312 34.578125 -31.0625 L 30.515625 0 L 25.0625 0 L 28.890625 -29.203125 C 29.296875 -32.210938 28.820312 -34.316406 27.46875 -35.515625 C 26.125 -36.710938 24.203125 -37.3125 21.703125 -37.3125 C 19.984375 -37.3125 18.421875 -36.972656 17.015625 -36.296875 C 15.609375 -35.617188 14.382812 -34.796875 13.34375 -33.828125 C 12.300781 -32.867188 11.441406 -31.945312 10.765625 -31.0625 L 6.71875 0 L 1.25 0 L 5.234375 -30.125 L 6.25 -41.375 L 10.921875 -41.375 L 10.921875 -35.828125 C 12.222656 -37.546875 13.941406 -39.039062 16.078125 -40.3125 C 18.210938 -41.59375 20.710938 -42.234375 23.578125 -42.234375 C 26.648438 -42.234375 29.054688 -41.59375 30.796875 -40.3125 C 32.535156 -39.039062 33.664062 -37.390625 34.1875 -35.359375 C 35.644531 -37.234375 37.492188 -38.847656 39.734375 -40.203125 C 41.972656 -41.554688 44.523438 -42.234375 47.390625 -42.234375 C 51.078125 -42.234375 53.9375 -41.191406 55.96875 -39.109375 C 58 -37.023438 58.753906 -33.976562 58.234375 -29.96875 Z M 54.328125 0 "/></g></g></g><g fill="#38d430" fill-opacity="1"><g transform="translate(420.340849, 63.592171)"><g><path d="M 27.09375 0 L 27.09375 -5.78125 C 25.632812 -4.007812 23.679688 -2.457031 21.234375 -1.125 C 18.785156 0.195312 15.816406 0.859375 12.328125 0.859375 C 8.378906 0.859375 5.398438 -0.207031 3.390625 -2.34375 C 1.390625 -4.476562 0.597656 -7.207031 1.015625 -10.53125 L 1.171875 -11.78125 C 1.535156 -14.695312 2.40625 -16.945312 3.78125 -18.53125 C 5.164062 -20.125 6.9375 -21.296875 9.09375 -22.046875 C 11.25 -22.804688 13.628906 -23.394531 16.234375 -23.8125 L 29.046875 -25.84375 L 29.28125 -27.5625 C 29.738281 -30.882812 29.367188 -33.390625 28.171875 -35.078125 C 26.984375 -36.773438 24.515625 -37.625 20.765625 -37.625 C 18.160156 -37.625 16.128906 -37.15625 14.671875 -36.21875 C 13.210938 -35.28125 12.144531 -34.066406 11.46875 -32.578125 C 10.789062 -31.097656 10.320312 -29.476562 10.0625 -27.71875 L 4.84375 -27.71875 L 5 -28.734375 C 5.257812 -30.285156 5.6875 -31.851562 6.28125 -33.4375 C 6.882812 -35.03125 7.78125 -36.488281 8.96875 -37.8125 C 10.164062 -39.144531 11.738281 -40.210938 13.6875 -41.015625 C 15.644531 -41.828125 18.054688 -42.234375 20.921875 -42.234375 C 24.878906 -42.234375 27.921875 -41.59375 30.046875 -40.3125 C 32.179688 -39.039062 33.585938 -37.242188 34.265625 -34.921875 C 34.941406 -32.609375 35.070312 -29.921875 34.65625 -26.859375 L 32.625 -11.703125 L 31.609375 0 Z M 13.578125 -3.90625 C 16.179688 -3.90625 18.378906 -4.296875 20.171875 -5.078125 C 21.972656 -5.859375 23.429688 -6.78125 24.546875 -7.84375 C 25.671875 -8.914062 26.519531 -9.835938 27.09375 -10.609375 L 28.5 -21.546875 L 16.3125 -19.59375 C 13.5 -19.175781 11.285156 -18.351562 9.671875 -17.125 C 8.066406 -15.90625 7.109375 -14.226562 6.796875 -12.09375 L 6.640625 -11 C 6.378906 -9.1875 6.804688 -7.550781 7.921875 -6.09375 C 9.046875 -4.632812 10.929688 -3.90625 13.578125 -3.90625 Z M 13.578125 -3.90625 "/></g></g></g></g></g></svg>